<svg width="22" height="22" viewBox="0 0 22 22" fill="none" xmlns="http://www.w3.org/2000/svg">
<path fill-rule="evenodd" clip-rule="evenodd" d="M0.199951 8.7502C0.199951 4.03576 4.03552 0.200195 8.74995 0.200195C13.4644 0.200195 17.2999 4.03576 17.2999 8.7502C17.2999 13.4646 13.4644 17.3002 8.74995 17.3002C4.03552 17.3002 0.199951 13.4646 0.199951 8.7502ZM8.74995 15.2002C5.19412 15.2002 2.29995 12.3067 2.29995 8.7502C2.29995 5.19438 5.19414 2.3002 8.74995 2.3002C12.3065 2.3002 15.2 5.19436 15.2 8.7502C15.2 12.3068 12.3065 15.2002 8.74995 15.2002ZM21.4923 21.4925C21.9027 21.0821 21.9027 20.4182 21.4923 20.0078L16.9915 15.5077C16.5811 15.0973 15.9172 15.0974 15.5068 15.5078C15.0964 15.9182 15.0964 16.5821 15.5068 16.9925L20.0075 21.4925C20.2122 21.6972 20.4814 21.8001 20.7499 21.8001C21.0184 21.8001 21.2876 21.6972 21.4923 21.4925Z" fill="black"/>
</svg>
