<?xml version="1.0" encoding="iso-8859-1"?>
<!-- Generator: Adobe Illustrator 18.0.0, SVG Export Plug-In . SVG Version: 6.00 Build 0)  -->
<!DOCTYPE svg PUBLIC "-//W3C//DTD SVG 1.1//EN" "http://www.w3.org/Graphics/SVG/1.1/DTD/svg11.dtd">
<svg version="1.1" id="Capa_1" xmlns="http://www.w3.org/2000/svg" xmlns:xlink="http://www.w3.org/1999/xlink" x="0px" y="0px"
	 viewBox="0 0 512 512" style="enable-background:new 0 0 512 512;" xml:space="preserve">
<g>
	<path d="M432,96h-48V32c0-17.672-14.328-32-32-32H160c-17.672,0-32,14.328-32,32v64H80c-17.672,0-32,14.328-32,32v32h416v-32
		C464,110.328,449.672,96,432,96z M192,96V64h128v32H192z"/>
	<path d="M80,480.004C80,497.676,94.324,512,111.996,512h288.012C417.676,512,432,497.676,432,480.008v-0.004V192H80V480.004z
		 M320,272c0-8.836,7.164-16,16-16s16,7.164,16,16v160c0,8.836-7.164,16-16,16s-16-7.164-16-16V272z M240,272
		c0-8.836,7.164-16,16-16s16,7.164,16,16v160c0,8.836-7.164,16-16,16s-16-7.164-16-16V272z M160,272c0-8.836,7.164-16,16-16
		s16,7.164,16,16v160c0,8.836-7.164,16-16,16s-16-7.164-16-16V272z"/>
</g>
<g>
</g>
<g>
</g>
<g>
</g>
<g>
</g>
<g>
</g>
<g>
</g>
<g>
</g>
<g>
</g>
<g>
</g>
<g>
</g>
<g>
</g>
<g>
</g>
<g>
</g>
<g>
</g>
<g>
</g>
</svg>
