<?xml version="1.0" standalone="no"?>
<!DOCTYPE svg PUBLIC "-//W3C//DTD SVG 20010904//EN"
 "http://www.w3.org/TR/2001/REC-SVG-20010904/DTD/svg10.dtd">
<svg version="1.0" xmlns="http://www.w3.org/2000/svg"
 width="307.000000pt" height="99.000000pt" viewBox="0 0 2000.000000 645.000000"
 preserveAspectRatio="xMidYMid meet">

<g transform="translate(0.000000,645.000000) scale(0.100000,-0.100000)"
fill="#000000" stroke="none">
<path d="M7834 4890 c-105 -15 -159 -54 -251 -180 -84 -115 -121 -192 -147
-306 -13 -60 -46 -181 -71 -269 -107 -366 -137 -478 -127 -484 6 -4 6 -31 0
-76 -20 -141 5 -269 65 -333 52 -57 87 -65 286 -69 163 -3 192 -2 250 16 187
57 388 237 440 393 18 55 60 260 61 295 0 27 -45 35 -202 35 l-161 1 -36 -105
c-20 -57 -44 -117 -54 -132 -42 -64 -151 -90 -181 -43 -34 54 -30 108 25 332
48 192 120 428 138 449 21 25 89 56 123 56 58 0 71 -52 43 -180 -30 -135 -29
-135 157 -143 79 -4 163 -3 188 1 43 7 45 8 52 51 4 24 22 81 39 127 30 79 32
91 26 177 -6 104 -49 237 -90 275 -40 37 -127 91 -165 102 -50 14 -332 21
-408 10z m294 -125 c99 -24 134 -46 180 -118 78 -119 88 -196 44 -332 l-19
-60 -97 -3 -98 -3 9 68 c27 222 -33 300 -206 269 -74 -14 -124 -58 -174 -155
-42 -81 -62 -142 -128 -396 -49 -187 -52 -208 -53 -325 -1 -115 1 -128 22
-163 27 -42 61 -63 120 -73 50 -8 89 5 144 48 83 63 104 88 138 166 l35 80 69
6 c42 4 73 3 80 -4 17 -17 -22 -152 -65 -224 -21 -36 -39 -69 -39 -75 0 -17
-101 -98 -157 -126 -114 -56 -220 -74 -323 -55 -119 21 -201 73 -242 153 -26
51 -28 158 -4 204 9 18 16 42 16 53 0 32 38 179 60 232 13 29 18 57 14 76 -7
34 53 254 92 337 12 28 32 86 44 130 41 152 67 189 177 245 113 56 243 73 361
45z"/>
<path d="M8691 4862 l-41 -37 -64 -265 c-36 -146 -81 -341 -101 -435 -53 -243
-134 -575 -150 -608 -8 -15 -21 -64 -30 -108 -9 -44 -23 -96 -31 -114 -8 -19
-14 -51 -14 -70 0 -35 1 -36 29 -30 21 4 30 2 34 -9 9 -22 27 -20 27 2 0 15
15 17 171 17 125 0 173 3 181 12 6 7 26 13 44 13 40 0 42 6 12 37 -21 23 -22
27 -10 104 12 87 60 295 72 318 11 20 43 -57 59 -139 7 -36 24 -104 37 -152
14 -49 23 -97 19 -108 -10 -33 5 -61 42 -76 71 -30 463 -9 463 25 0 3 -13 15
-30 26 -30 20 -36 35 -45 115 -9 74 -33 145 -106 311 -38 87 -73 168 -78 182
-9 24 -7 25 70 46 159 42 268 147 339 325 62 155 75 243 51 358 -20 93 -62
145 -156 193 -148 75 -155 77 -281 76 -63 0 -127 -4 -141 -7 -22 -6 -25 -4
-20 10 8 20 5 20 -108 1 -119 -19 -185 -20 -185 -1 0 29 -18 25 -59 -12z m564
-102 c79 -12 118 -33 111 -58 -3 -12 11 -27 51 -52 31 -19 69 -53 85 -75 29
-38 30 -43 23 -114 -3 -40 -15 -92 -26 -115 -60 -129 -303 -346 -386 -346 -12
0 -33 14 -48 33 l-26 32 3 -80 c3 -83 17 -121 77 -210 31 -46 136 -346 145
-416 l7 -46 -69 -13 c-84 -15 -137 -8 -154 23 -6 12 -19 56 -29 97 -21 97 -63
237 -96 324 -14 38 -27 76 -28 85 -1 9 -7 30 -15 46 -7 17 -20 57 -30 89 l-16
59 -26 -44 c-31 -53 -87 -223 -94 -288 -3 -25 -26 -121 -51 -213 -53 -194 -52
-193 -174 -182 l-68 7 16 36 c9 20 19 67 24 104 4 38 24 127 44 198 20 72 54
224 75 338 38 201 139 578 183 688 17 41 28 54 48 58 15 4 29 15 32 26 5 18
15 19 174 19 92 0 199 -5 238 -10z"/>
<path d="M9110 4560 c0 -6 -43 -10 -109 -10 -61 0 -112 -4 -115 -8 -3 -5 -6
-28 -7 -53 -3 -83 -38 -205 -71 -248 -23 -30 -23 -41 0 -41 10 0 22 -4 28 -9
5 -5 62 -11 126 -14 111 -5 120 -4 167 20 66 32 107 80 126 148 21 72 9 110
-54 176 -44 45 -91 65 -91 39z m29 -115 c16 -8 31 -25 35 -39 13 -52 -39 -130
-80 -120 -12 3 -33 0 -46 -7 -12 -7 -47 -15 -76 -17 -48 -3 -53 -2 -49 15 3
10 16 55 29 101 l23 82 68 0 c40 0 80 -6 96 -15z"/>
<path d="M11303 4861 c-91 -6 -93 -7 -134 -46 -54 -53 -119 -148 -134 -199
-16 -52 -192 -418 -205 -426 -13 -8 -147 -299 -236 -510 -39 -92 -70 -156 -72
-145 -2 11 -8 32 -14 47 -8 23 -14 26 -28 18 -11 -6 -127 -10 -274 -10 -228 0
-256 2 -256 16 0 14 11 60 41 178 l10 38 139 -4 139 -3 9 40 c5 22 24 93 41
159 17 65 31 135 31 156 l0 37 -132 7 c-73 4 -134 9 -136 11 -2 1 10 45 26 96
l29 94 254 6 c140 3 273 9 297 14 51 8 48 3 97 198 20 78 41 152 48 165 22 45
1 57 -108 60 -80 2 -100 0 -107 -12 -7 -13 -59 -15 -377 -14 -257 0 -374 -3
-389 -11 -15 -8 -30 -39 -51 -109 -65 -211 -182 -667 -221 -857 -22 -110 -61
-276 -85 -369 -63 -236 -64 -240 -30 -262 32 -21 18 -21 582 -16 205 2 377 1
383 -3 5 -3 61 -4 125 -1 63 2 117 1 119 -3 6 -9 108 2 126 14 8 6 46 75 84
155 39 80 75 150 80 157 7 8 26 10 53 6 47 -6 46 -4 59 -188 3 -55 10 -108 15
-117 11 -20 46 -25 211 -32 94 -4 120 -2 132 9 11 11 14 48 14 171 -1 117 2
158 12 164 9 5 11 21 7 51 -3 24 -2 95 4 158 9 118 13 254 25 809 l6 312 -58
-2 c-33 -1 -100 -4 -151 -7z m86 -116 c10 -11 -3 -410 -14 -446 -5 -15 -1 -22
14 -26 12 -3 21 -9 21 -14 0 -5 -7 -6 -15 -3 -8 4 -15 1 -15 -5 0 -6 7 -11 15
-11 17 0 18 -4 9 -49 -5 -23 -12 -31 -28 -31 l-21 0 2 -420 2 -420 -79 0 c-43
0 -82 5 -85 10 -4 6 -9 77 -12 158 -7 184 -6 182 -117 181 -96 0 -172 -24
-169 -53 2 -28 -125 -274 -145 -280 -37 -10 -164 -28 -168 -23 -3 3 28 72 69
153 41 82 87 190 102 239 15 50 56 151 92 225 36 74 75 158 88 185 12 28 50
106 83 175 33 69 66 139 72 155 6 17 45 95 87 174 l75 143 64 -4 c35 -2 68 -8
73 -13z m-694 -27 c8 -7 -23 -158 -35 -171 -4 -5 -139 -13 -301 -18 -341 -11
-317 -2 -343 -126 -10 -43 -25 -107 -36 -143 -17 -61 -20 -143 -6 -157 4 -4
63 -8 133 -10 69 -1 127 -4 129 -6 2 -1 -4 -34 -13 -71 -13 -51 -22 -70 -37
-76 -12 -4 -70 -10 -130 -14 -59 -3 -120 -12 -134 -19 -35 -16 -51 -52 -67
-151 -7 -45 -21 -110 -30 -146 -19 -72 -10 -105 33 -121 13 -5 140 -9 282 -9
l260 0 -7 -32 c-19 -99 -27 -112 -68 -120 -22 -4 -194 -7 -383 -7 l-342 -1 6
28 c4 15 15 47 25 71 21 49 24 78 9 115 -8 21 -4 35 15 72 14 26 25 56 25 66
0 11 8 31 19 44 23 29 35 101 23 134 -10 28 4 89 37 161 20 44 52 188 53 234
0 20 15 95 65 314 22 98 32 125 48 132 51 22 270 38 512 36 138 -1 254 -5 258
-9z"/>
<path d="M11189 4373 c-17 -21 -31 -51 -97 -198 -27 -60 -52 -123 -56 -140
-10 -40 -53 -133 -79 -169 -11 -16 -15 -26 -7 -21 7 4 66 7 131 6 65 -1 127 2
137 8 17 9 20 26 26 118 18 308 19 383 6 398 -17 20 -44 19 -61 -2z m-28 -358
c-12 -80 -15 -85 -37 -85 -13 0 -24 4 -24 9 0 18 63 171 68 166 3 -3 0 -43 -7
-90z"/>
<path d="M12745 4839 c-22 -6 -87 -9 -144 -6 -123 5 -109 14 -214 -150 -40
-62 -75 -113 -78 -113 -3 0 -9 34 -13 76 -5 51 -16 93 -34 130 l-26 54 -176
-2 -175 -3 -22 -45 c-11 -25 -24 -63 -28 -85 -6 -41 -62 -253 -139 -529 -41
-148 -43 -161 -28 -174 13 -10 14 -12 2 -9 -15 4 -29 -50 -111 -426 -16 -76
-36 -151 -44 -167 -19 -37 -33 -132 -24 -158 4 -11 16 -25 27 -31 21 -11 307
-9 334 3 9 4 19 22 22 41 4 18 29 113 56 211 28 99 62 231 76 294 31 138 39
154 41 89 2 -90 49 -124 106 -79 15 12 42 49 62 83 19 34 35 58 35 52 0 -5
-12 -57 -26 -115 -23 -95 -58 -251 -100 -448 -10 -45 -14 -90 -9 -118 7 -46
13 -52 33 -31 9 8 59 13 167 14 85 1 159 4 165 8 23 14 42 72 61 183 10 64 49
232 84 372 76 295 145 573 203 815 23 94 48 191 56 218 15 46 15 47 -7 47 -12
0 -38 2 -57 5 -19 2 -53 -1 -75 -6z m10 -166 c-6 -74 -31 -185 -75 -333 -10
-36 -26 -101 -35 -145 -9 -44 -30 -111 -45 -150 -16 -38 -56 -194 -89 -345
-33 -151 -70 -305 -82 -341 l-21 -66 -73 -7 c-79 -7 -105 -2 -105 21 0 60 142
738 177 846 5 14 -1 17 -40 17 l-46 0 -64 -97 c-35 -54 -73 -113 -83 -130 -10
-18 -21 -33 -25 -33 -4 0 -9 15 -13 33 -21 106 -50 188 -69 199 -40 21 -59
-21 -111 -238 -26 -109 -56 -233 -66 -274 -10 -41 -41 -136 -70 -211 l-52
-136 -51 -7 c-57 -6 -127 2 -127 15 0 5 20 88 45 185 25 97 51 211 60 253 29
153 104 468 123 521 11 30 23 78 27 105 7 57 53 222 85 308 l21 57 114 0 113
0 11 -50 c6 -28 11 -71 11 -95 0 -62 19 -141 38 -164 9 -10 31 -21 47 -24 28
-5 32 -1 63 51 18 32 45 85 61 119 36 75 97 144 154 172 32 16 61 21 120 21
l78 0 -6 -77z"/>
<path d="M4825 2280 c-135 -21 -227 -174 -160 -264 8 -10 56 -39 107 -65 87
-43 93 -48 96 -79 7 -67 -53 -112 -145 -112 -48 0 -124 28 -137 49 -13 20 -25
11 -35 -26 -15 -52 -16 -50 32 -75 35 -19 58 -23 132 -23 80 0 95 3 137 28 58
33 99 99 106 166 4 42 1 52 -27 83 -20 23 -55 46 -99 63 -80 32 -102 50 -102
82 0 64 53 97 144 91 43 -2 71 -10 93 -26 l31 -22 6 28 c4 15 9 35 12 45 10
34 -110 70 -191 57z"/>
<path d="M8077 2279 c-93 -15 -161 -82 -173 -171 -10 -74 11 -101 121 -154
107 -51 120 -70 91 -131 -32 -68 -142 -84 -240 -34 -31 15 -58 25 -60 22 -2
-3 -7 -23 -11 -43 -7 -35 -6 -37 37 -59 59 -30 159 -37 226 -15 90 30 165 144
148 224 -10 42 -52 78 -126 108 -36 14 -73 33 -82 41 -28 25 -22 70 11 104 26
26 36 29 93 29 45 0 72 -6 96 -20 18 -11 36 -20 41 -20 5 0 13 18 19 41 l10
41 -41 18 c-54 23 -100 28 -160 19z"/>
<path d="M1739 2264 c-100 -30 -191 -148 -224 -286 -26 -113 -14 -190 38 -246
49 -53 179 -64 299 -27 53 17 56 20 65 61 6 24 10 44 9 44 0 0 -23 -8 -51 -19
-111 -41 -225 -35 -265 16 -49 62 -4 259 77 335 63 60 176 76 275 38 28 -11
53 -18 55 -16 2 1 4 20 6 42 2 38 1 39 -48 56 -61 21 -173 22 -236 2z"/>
<path d="M2267 2266 c-131 -47 -222 -193 -234 -376 -4 -65 -2 -81 19 -119 35
-65 81 -86 188 -86 67 0 96 5 137 24 100 45 170 148 200 299 27 131 0 216 -80
252 -51 23 -172 26 -230 6z m190 -86 c39 -23 47 -51 40 -133 -14 -171 -112
-287 -242 -287 -52 0 -105 20 -122 46 -35 54 -4 228 56 311 16 22 48 50 72 61
58 29 151 30 196 2z"/>
<path d="M2745 2268 c-2 -7 -34 -132 -70 -278 -36 -146 -68 -273 -71 -282 -5
-17 8 -18 180 -18 102 0 187 3 189 8 3 4 8 22 12 40 l7 32 -141 0 c-106 0
-141 3 -141 13 0 6 27 118 60 247 32 129 56 238 54 242 -8 13 -74 9 -79 -4z"/>
<path d="M3193 2268 c-6 -7 -42 -140 -80 -295 l-71 -283 188 0 188 0 6 31 c3
17 6 35 6 40 0 5 -63 9 -140 9 -77 0 -140 2 -140 5 0 3 27 113 60 245 33 132
60 244 60 250 0 14 -66 13 -77 -2z"/>
<path d="M3782 2238 c-53 -77 -352 -539 -352 -544 0 -2 20 -4 44 -4 l44 0 54
85 53 85 116 0 117 0 6 -57 c13 -114 13 -113 60 -113 l42 0 -39 273 c-22 149
-44 282 -48 295 -6 16 -17 22 -38 22 -24 0 -36 -9 -59 -42z m57 -260 l1 -28
-76 0 c-58 0 -75 3 -71 13 3 7 31 53 63 102 l58 90 13 -75 c6 -41 12 -87 12
-102z"/>
<path d="M4177 2273 c-6 -9 -147 -566 -147 -578 0 -4 19 -5 42 -3 l42 3 25
101 24 102 104 4 c132 6 201 37 247 111 59 96 44 211 -32 245 -42 18 -295 31
-305 15z m273 -103 c25 -25 25 -53 1 -107 -27 -59 -60 -73 -171 -73 -49 0 -90
3 -90 6 0 7 39 164 45 182 3 8 32 12 100 12 82 0 98 -3 115 -20z"/>
<path d="M5160 2258 c-10 -25 -140 -541 -140 -558 0 -6 66 -10 189 -10 l189 0
6 31 c3 17 6 35 6 40 0 5 -65 9 -145 9 -80 0 -145 3 -145 8 0 4 4 23 9 42 6
19 15 54 21 78 l11 42 129 0 129 0 10 37 c6 20 8 40 5 45 -3 4 -59 8 -125 8
-65 0 -119 3 -119 8 0 4 7 40 17 80 l17 72 142 0 c153 0 160 2 166 55 l3 30
-183 3 c-181 2 -182 2 -192 -20z"/>
<path d="M5904 2269 c-6 -8 -43 -141 -81 -296 l-71 -283 43 0 43 0 27 110 27
110 67 0 66 0 41 -108 41 -107 46 -3 c26 -2 47 1 47 6 0 5 -18 53 -40 107 -22
54 -40 104 -40 111 0 7 9 16 21 19 35 11 101 77 120 120 20 44 25 135 9 166
-22 41 -67 53 -215 57 -110 3 -143 1 -151 -9z m280 -95 c35 -35 -2 -136 -58
-159 -41 -18 -206 -21 -206 -5 0 6 10 49 21 95 l21 85 104 0 c80 0 106 -3 118
-16z"/>
<path d="M6430 2258 c-24 -56 -92 -358 -92 -409 0 -88 34 -138 107 -158 130
-35 268 27 330 149 21 42 115 388 115 424 0 14 -8 17 -37 14 l-38 -3 -50 -195
c-64 -247 -76 -271 -158 -305 -63 -26 -144 -16 -173 23 -22 29 -16 86 31 272
25 99 45 186 45 195 0 11 -10 15 -35 15 -27 0 -38 -5 -45 -22z"/>
<path d="M7015 2268 c-2 -7 -34 -132 -70 -278 -36 -146 -68 -273 -71 -282 -5
-17 8 -18 180 -18 102 0 187 3 189 8 3 4 8 22 12 40 l7 32 -141 0 c-106 0
-141 3 -141 13 0 6 27 118 60 247 32 129 56 238 54 242 -8 13 -74 9 -79 -4z"/>
<path d="M7463 2268 c-6 -7 -42 -140 -80 -295 l-71 -283 189 0 c103 0 190 3
192 8 3 4 8 22 12 40 l7 32 -146 0 c-110 0 -146 3 -146 13 0 6 9 44 18 82 l18
70 131 3 131 3 10 39 c5 21 7 42 4 45 -3 3 -60 5 -128 5 l-122 0 20 80 20 79
147 3 146 3 11 35 c7 19 10 38 7 43 -2 4 -84 7 -182 7 -131 0 -181 -3 -188
-12z"/>
<path d="M8666 2272 c-5 -8 -146 -566 -146 -577 0 -3 85 -5 189 -5 l189 0 10
40 10 40 -150 0 c-138 0 -149 1 -144 18 3 9 13 47 22 85 l16 67 129 0 c70 0
130 3 133 8 2 4 7 24 11 45 l7 37 -126 0 c-69 0 -126 3 -126 8 0 4 9 39 18 77
l18 70 149 5 c149 5 149 5 156 30 18 63 27 60 -175 60 -102 0 -187 -4 -190 -8z"/>
<path d="M9105 2268 c-3 -7 12 -139 33 -293 l37 -280 40 -3 40 -2 180 286 c99
158 182 291 184 296 1 5 -17 8 -40 6 l-44 -3 -138 -220 c-76 -121 -142 -221
-146 -223 -5 -2 -14 41 -21 95 -6 54 -19 154 -28 223 l-17 125 -38 3 c-24 2
-39 -1 -42 -10z"/>
<path d="M9680 2258 c-10 -25 -140 -541 -140 -558 0 -6 66 -10 189 -10 l189 0
6 31 c3 17 6 35 6 40 0 5 -65 9 -145 9 -80 0 -145 3 -145 8 0 4 4 23 9 42 6
19 15 54 21 78 l11 42 129 0 129 0 10 37 c6 20 8 40 5 45 -3 4 -59 8 -125 8
-65 0 -119 3 -119 8 0 4 7 40 17 80 l17 72 142 0 c153 0 160 2 166 55 l3 30
-183 3 c-181 2 -182 2 -192 -20z"/>
<path d="M10176 2272 c-5 -8 -146 -566 -146 -577 0 -4 19 -5 42 -3 l42 3 26
105 26 105 66 3 66 3 43 -111 44 -110 49 0 c35 0 47 3 43 13 -43 102 -87 212
-87 218 0 4 12 10 26 13 45 12 111 88 130 152 29 100 0 165 -82 184 -49 12
-281 13 -288 2z m282 -94 c20 -20 14 -82 -11 -119 -33 -49 -60 -59 -165 -59
-84 0 -93 2 -88 18 3 9 12 46 21 82 9 36 18 71 20 78 6 17 206 17 223 0z"/>
<path d="M10610 2270 c0 -5 30 -77 67 -161 l67 -151 -29 -116 c-15 -64 -30
-125 -33 -134 -4 -15 3 -18 36 -18 46 0 39 -15 83 165 24 100 24 100 223 310
94 99 95 100 89 63 l-6 -38 97 0 c53 0 96 -2 96 -5 0 -3 -27 -113 -60 -245
-33 -132 -60 -242 -60 -245 0 -3 18 -5 40 -5 36 0 40 3 48 33 5 17 33 130 63
250 l54 217 98 0 c95 0 98 1 107 26 6 14 10 34 10 45 0 18 -10 19 -284 19
l-284 0 -69 -72 c-38 -40 -90 -95 -114 -122 l-45 -49 -49 114 c-27 63 -54 117
-60 121 -15 11 -85 10 -85 -2z"/>
<path d="M11670 2258 c-10 -25 -140 -541 -140 -558 0 -5 18 -10 40 -10 44 0
37 -15 81 163 l21 87 140 0 c128 0 139 -1 134 -17 -9 -30 -56 -221 -56 -227 0
-3 18 -6 40 -6 37 0 40 2 49 38 41 154 131 524 131 537 0 13 -9 15 -37 13
l-38 -3 -26 -100 c-14 -55 -29 -112 -33 -127 l-6 -28 -134 0 c-73 0 -135 2
-138 5 -2 3 8 53 24 112 37 141 36 143 -7 143 -27 0 -38 -5 -45 -22z"/>
<path d="M12244 2273 c-6 -5 -41 -129 -78 -278 -37 -148 -69 -278 -72 -287 -5
-15 1 -18 38 -18 l43 0 69 275 c37 151 69 282 70 292 1 13 -7 19 -29 21 -16 1
-35 -1 -41 -5z"/>
<path d="M12440 2258 c-10 -25 -140 -541 -140 -558 0 -5 18 -10 40 -10 45 0
34 -25 95 220 52 211 56 223 62 216 3 -3 49 -101 103 -218 l97 -213 44 -3 44
-3 69 275 c37 152 69 283 70 293 1 22 -55 31 -71 11 -6 -7 -32 -102 -59 -211
-47 -190 -58 -227 -67 -217 -2 3 -46 97 -97 210 -51 113 -98 211 -103 218 -5
6 -25 12 -43 12 -26 0 -37 -5 -44 -22z"/>
<path d="M13200 2271 c-131 -43 -212 -146 -247 -316 -25 -124 -1 -204 77 -249
49 -29 210 -29 289 0 l55 20 33 129 c18 72 33 133 33 138 0 4 -49 7 -109 7
l-109 0 -10 -40 -10 -40 70 0 c61 0 69 -2 64 -17 -3 -10 -11 -40 -17 -68 -7
-27 -17 -53 -23 -57 -6 -4 -39 -10 -74 -14 -78 -8 -145 9 -174 45 -18 23 -20
36 -15 102 15 226 168 338 367 269 30 -10 58 -16 61 -12 4 4 10 21 14 39 6 29
3 34 -27 49 -37 20 -204 30 -248 15z"/>
<path d="M14045 2263 c-8 -10 -95 -142 -194 -293 l-178 -275 45 -3 c29 -2 48
1 53 10 4 7 28 46 54 86 l46 72 113 0 c130 0 119 9 132 -107 l7 -63 44 0 44 0
-7 48 c-3 26 -23 157 -43 292 l-36 245 -32 3 c-22 2 -37 -3 -48 -15z m31 -215
c7 -51 11 -94 10 -96 -2 -1 -37 -2 -79 0 l-75 3 60 98 c34 53 64 95 67 92 2
-3 10 -47 17 -97z"/>
<path d="M14420 2259 c-10 -25 -140 -541 -140 -559 0 -5 18 -10 40 -10 44 0
40 -7 76 144 l18 76 66 0 67 0 43 -110 43 -110 48 0 47 0 -44 110 c-24 60 -44
113 -44 117 0 5 21 19 47 33 84 45 141 177 109 253 -26 63 -51 72 -218 76
-147 3 -147 3 -158 -20z m294 -102 c15 -41 -11 -106 -53 -134 -29 -20 -47 -23
-129 -23 -93 0 -94 0 -88 23 3 12 13 55 23 95 l17 73 110 -3 111 -3 9 -28z"/>
<path d="M15060 2265 c-92 -29 -162 -112 -206 -241 -46 -139 -35 -251 32 -303
59 -47 197 -53 288 -13 119 53 206 216 206 388 0 78 -18 117 -72 157 -36 27
-181 34 -248 12z m208 -98 c24 -24 27 -35 26 -90 -1 -124 -62 -251 -139 -291
-57 -29 -162 -29 -202 0 -39 30 -49 72 -35 154 31 182 113 264 255 257 58 -2
71 -7 95 -30z"/>
<path d="M15540 2258 c-24 -56 -92 -358 -92 -409 0 -88 34 -138 107 -158 130
-35 268 27 330 149 21 42 115 388 115 424 0 14 -8 17 -37 14 l-38 -3 -50 -195
c-64 -247 -76 -271 -158 -305 -63 -26 -144 -16 -173 23 -22 29 -16 86 31 272
25 99 45 186 45 195 0 11 -10 15 -35 15 -27 0 -38 -5 -45 -22z"/>
<path d="M16125 2268 c-2 -7 -34 -132 -70 -278 -36 -146 -68 -273 -71 -282 -5
-15 1 -18 38 -18 l44 0 54 219 c30 121 57 218 61 216 3 -3 51 -101 105 -220
l98 -215 43 0 c40 0 43 2 52 38 41 154 131 524 131 537 0 13 -9 15 -37 13
l-38 -3 -55 -218 c-30 -119 -58 -216 -63 -214 -4 1 -53 99 -107 217 l-98 215
-41 3 c-27 2 -43 -1 -46 -10z"/>
<path d="M16736 2269 c-3 -8 -35 -133 -71 -279 -36 -146 -68 -273 -71 -282 -5
-17 5 -18 124 -18 192 0 271 32 340 135 55 84 75 149 76 252 1 107 -12 134
-85 171 -38 19 -68 24 -177 29 -108 5 -132 4 -136 -8z m258 -89 c62 -23 77
-119 37 -234 -44 -124 -104 -167 -243 -174 -77 -4 -88 -2 -88 12 0 15 84 361
95 394 5 15 161 17 199 2z"/>
<path d="M17545 2268 c-2 -7 -34 -132 -70 -278 -36 -146 -68 -273 -71 -282 -5
-15 1 -18 38 -18 l44 0 43 178 c59 237 61 243 70 237 5 -2 19 -31 32 -62 12
-32 35 -86 51 -121 l27 -62 123 126 c67 69 124 121 126 116 2 -8 -73 -325 -94
-395 -5 -16 0 -18 37 -15 l43 3 72 287 c39 158 69 290 66 293 -3 3 -20 5 -38
5 -29 0 -47 -15 -160 -137 -71 -76 -133 -138 -138 -138 -5 0 -33 56 -60 125
-28 69 -55 131 -59 138 -11 16 -76 16 -82 0z"/>
<path d="M18213 2268 c-6 -7 -42 -140 -80 -295 l-71 -283 189 0 c103 0 190 3
192 8 3 4 8 22 12 40 l7 32 -146 0 c-110 0 -146 3 -146 13 0 6 9 44 18 82 l18
70 131 3 131 3 10 39 c5 21 7 42 4 45 -3 3 -60 5 -128 5 l-122 0 20 80 20 79
147 3 146 3 11 35 c7 19 10 38 7 43 -2 4 -84 7 -182 7 -131 0 -181 -3 -188
-12z"/>
</g>
</svg>
