<?xml version="1.0" standalone="no"?>
<!DOCTYPE svg PUBLIC "-//W3C//DTD SVG 20010904//EN"
 "http://www.w3.org/TR/2001/REC-SVG-20010904/DTD/svg10.dtd">
<svg version="1.0" xmlns="http://www.w3.org/2000/svg"
 width="133.000000pt" height="84.000000pt" viewBox="0 0 2000.000000 1267.000000"
 preserveAspectRatio="xMidYMid meet">

<g transform="translate(0.000000,1267.000000) scale(0.100000,-0.100000)"
fill="#000000" stroke="none">
<path d="M6975 9000 c-77 -68 -93 -88 -108 -132 -37 -112 -261 -1026 -362
-1483 -58 -264 -128 -581 -155 -705 -28 -124 -67 -290 -89 -370 -102 -384
-127 -470 -137 -470 -10 0 -40 -122 -79 -320 -9 -47 -30 -118 -46 -157 -25
-63 -29 -85 -29 -173 0 -55 3 -100 8 -100 4 0 24 11 44 25 20 14 41 25 46 25
5 0 23 -20 41 -45 32 -45 51 -57 51 -32 0 6 5 29 10 49 l11 37 192 -5 c106 -4
252 -1 324 4 133 11 189 5 204 -20 5 -8 23 -1 63 25 31 21 56 41 56 47 0 5 36
10 80 12 l81 3 -61 72 -61 72 26 147 c28 164 52 272 127 587 28 119 54 217 57
217 3 0 27 -49 53 -108 37 -83 53 -134 68 -227 20 -119 45 -220 118 -472 35
-120 37 -134 24 -159 -24 -46 -10 -112 31 -150 63 -58 114 -62 667 -55 l235 3
123 36 c67 20 122 40 122 44 0 4 -23 19 -50 34 -39 21 -49 31 -44 46 4 14 0
18 -20 18 -22 0 -27 7 -41 53 -9 28 -20 97 -25 152 -19 207 -72 360 -306 876
-113 252 -148 339 -137 349 4 4 60 20 123 35 247 59 379 130 535 289 215 217
361 527 445 946 18 88 20 114 11 165 -6 33 -20 112 -32 175 -20 114 -48 193
-90 252 -12 16 -22 39 -23 50 -2 40 -340 232 -506 287 -36 12 -71 24 -79 26
-10 4 -11 9 -2 19 10 11 -10 14 -121 18 -73 2 -135 1 -138 -2 -3 -4 -111 -10
-240 -13 l-235 -7 40 35 c36 31 37 35 15 30 -125 -24 -533 -78 -599 -79 l-84
-1 -15 53 c-8 28 -17 52 -21 52 -3 0 -46 -36 -96 -80z m1350 -254 c94 -18 152
-42 201 -82 l29 -23 -29 -24 -28 -23 128 -86 c140 -93 218 -167 257 -244 36
-72 40 -111 21 -201 -10 -43 -18 -101 -19 -128 -1 -55 -48 -166 -106 -252 -72
-107 -348 -413 -372 -413 -5 0 -41 -30 -80 -66 -98 -93 -225 -173 -327 -206
-100 -33 -92 -36 -155 50 -32 42 -62 82 -67 87 -7 6 -8 -50 -5 -155 3 -128 9
-179 24 -226 19 -58 179 -335 207 -358 19 -16 117 -295 180 -511 13 -44 42
-129 65 -189 28 -71 40 -118 36 -135 -3 -14 2 -51 10 -81 22 -82 23 -80 -51
-80 -60 0 -65 -2 -59 -19 5 -17 -1 -20 -62 -27 -92 -10 -200 -10 -244 -1 -78
16 -121 88 -144 243 -9 60 -28 143 -41 184 -14 41 -40 131 -59 200 -42 155
-77 262 -149 454 -38 100 -53 153 -46 160 6 8 2 24 -12 47 -11 18 -29 58 -39
88 -11 30 -23 59 -27 65 -5 6 -21 65 -37 130 -32 138 -23 138 -106 -6 -30 -52
-68 -141 -95 -224 -62 -188 -126 -452 -119 -489 3 -21 -30 -153 -105 -419 -60
-214 -110 -389 -112 -390 -27 -19 -121 -48 -157 -48 -84 -2 -291 15 -291 23 0
5 20 57 44 116 36 91 43 119 43 178 1 82 29 224 84 425 106 383 132 494 174
742 58 345 84 471 145 705 77 293 258 903 282 947 11 22 31 69 44 105 17 50
29 67 46 72 13 4 43 12 67 19 42 11 43 13 38 45 -5 33 -5 34 36 38 23 2 233 3
467 2 353 -2 440 -5 515 -19z"/>
<path d="M7927 8280 c-5 -19 -14 -20 -260 -20 l-254 0 -15 -106 c-8 -58 -11
-107 -7 -110 9 -5 9 -1 -37 -194 -20 -85 -45 -166 -54 -180 -9 -14 -15 -30
-13 -37 3 -7 -23 -48 -57 -93 l-61 -80 48 0 c38 0 53 -5 76 -27 l28 -28 217
-6 c140 -4 231 -11 256 -20 36 -12 40 -12 55 7 11 14 33 23 63 26 51 6 107 40
207 127 75 65 115 123 138 201 8 30 22 72 29 93 31 84 5 182 -79 299 -81 114
-155 168 -227 168 -39 0 -49 -4 -53 -20z m65 -252 c46 -21 61 -35 79 -69 41
-81 6 -205 -77 -278 -40 -35 -45 -36 -120 -36 -64 0 -85 -4 -109 -21 -25 -18
-51 -22 -152 -27 l-121 -7 5 23 c3 12 27 99 53 192 26 94 51 186 55 205 4 19
13 39 19 43 6 4 79 6 161 5 137 -4 155 -6 207 -30z"/>
<path d="M5029 9059 c-204 -17 -311 -60 -427 -173 -132 -128 -218 -239 -349
-451 -114 -184 -151 -266 -173 -376 -30 -159 -165 -662 -288 -1074 -95 -317
-222 -775 -222 -798 0 -4 7 -7 15 -7 25 0 26 -19 10 -125 -25 -166 -30 -374
-11 -484 57 -326 231 -486 551 -508 77 -5 98 -3 135 14 44 19 46 19 115 1 54
-14 111 -18 245 -19 157 -1 185 1 272 24 296 78 582 249 808 483 237 245 311
402 375 789 14 82 35 194 46 248 12 54 19 103 16 110 -3 7 -24 26 -47 42 l-42
29 -337 1 c-185 0 -352 4 -372 9 l-36 8 -30 -78 c-17 -44 -47 -133 -68 -199
-74 -241 -156 -370 -263 -418 -64 -28 -196 -36 -240 -13 -57 29 -76 83 -80
226 -3 109 0 144 27 280 52 255 164 672 296 1100 77 249 87 265 214 328 63 31
88 38 152 41 45 2 85 -2 98 -8 64 -35 72 -168 23 -391 -43 -193 -46 -222 -28
-265 24 -57 60 -67 281 -77 357 -15 458 -12 633 18 33 5 33 6 27 48 -8 53 16
144 85 320 87 221 94 252 87 385 -7 133 -27 249 -64 365 -31 98 -105 268 -132
302 -27 34 -105 95 -166 129 -27 16 -68 45 -90 65 -39 36 -80 54 -190 80 -105
25 -639 37 -856 19z m661 -303 c52 -13 134 -41 181 -61 l87 -36 77 -110 c158
-226 199 -332 199 -509 0 -125 -10 -173 -71 -352 l-37 -108 -229 0 -229 0 6
28 c58 268 58 454 0 582 -46 102 -111 150 -229 171 -79 13 -148 7 -230 -21
-32 -11 -79 -20 -105 -20 -47 0 -48 -1 -125 -87 -217 -245 -268 -378 -520
-1378 -71 -283 -106 -560 -86 -697 35 -252 154 -376 374 -394 113 -10 187 13
256 79 31 29 82 68 115 86 32 19 87 60 121 93 50 46 67 70 80 111 9 29 45 111
78 183 l62 131 80 7 c229 19 244 19 261 5 23 -19 14 -93 -31 -249 -42 -148
-83 -236 -158 -345 -34 -48 -52 -82 -45 -86 19 -12 -107 -139 -221 -223 -121
-88 -348 -183 -521 -217 -97 -19 -316 -15 -430 9 -382 79 -604 346 -560 675 6
45 23 109 37 142 14 33 29 87 33 120 4 33 30 152 59 264 38 150 66 234 106
322 52 114 53 119 29 113 -40 -10 -40 19 0 178 46 187 164 568 181 588 25 28
74 168 119 337 55 204 65 235 112 324 53 101 162 195 246 213 14 3 39 17 55
30 36 30 195 89 298 111 180 38 411 34 575 -9z"/>
<path d="M13295 8999 c-60 -4 -190 -11 -288 -15 l-178 -6 -67 -54 c-37 -29
-95 -86 -128 -126 -116 -138 -235 -335 -232 -383 2 -27 -58 -156 -280 -607
-102 -208 -191 -378 -197 -378 -24 0 -254 -499 -513 -1110 -83 -195 -162 -380
-176 -410 l-26 -55 6 52 c6 46 3 57 -26 104 -18 30 -30 60 -27 71 5 18 4 18
-16 4 -12 -9 -31 -23 -42 -30 -31 -22 -297 -29 -788 -21 l-437 7 0 27 c1 14
27 129 58 256 58 230 58 230 87 236 63 14 488 9 550 -5 33 -8 61 -13 63 -11 5
5 181 686 193 747 10 52 9 171 -2 182 -2 2 -143 8 -313 12 l-308 7 6 36 c3 20
25 99 49 176 24 77 50 163 56 192 12 47 16 53 44 58 18 3 235 7 482 9 426 4
687 16 819 36 32 5 60 11 62 13 6 6 54 169 69 234 7 33 34 137 59 230 25 92
53 203 61 246 8 42 24 90 35 105 38 52 28 119 -23 147 -29 15 -44 16 -154 6
-67 -6 -164 -11 -217 -11 -93 0 -96 -1 -102 -25 -3 -13 -15 -27 -26 -31 -23
-7 -851 4 -872 12 -7 3 -197 1 -422 -4 -399 -8 -410 -9 -456 -32 l-46 -23 -46
-139 c-26 -77 -78 -259 -117 -406 -38 -147 -110 -411 -159 -587 -152 -551
-184 -680 -274 -1140 -79 -405 -124 -591 -236 -990 -11 -38 -30 -106 -41 -150
-11 -44 -28 -104 -36 -134 -14 -48 -14 -57 0 -86 35 -73 172 -102 432 -91 88
4 529 9 980 12 720 5 822 8 837 21 16 14 19 13 35 -17 18 -31 19 -32 73 -26
30 4 153 9 274 13 l219 6 17 -23 18 -23 27 19 c23 17 34 19 83 10 69 -11 119
-3 162 27 33 22 70 93 313 605 l68 143 107 -7 c59 -3 110 -9 113 -13 4 -3 17
-139 29 -301 32 -437 27 -410 75 -427 25 -10 111 -18 235 -24 107 -5 256 -13
332 -19 83 -6 146 -7 160 -1 13 5 39 26 57 47 30 34 33 41 27 83 -24 189 -27
321 -13 485 12 133 19 171 31 178 13 7 16 27 16 91 0 50 -5 88 -12 95 -8 8 -8
29 2 84 21 120 47 676 55 1177 3 201 9 369 14 375 19 24 22 93 6 132 -15 35
-15 58 -6 209 6 94 12 341 14 550 l2 380 -50 1 c-27 1 -99 -2 -160 -7z m-103
-276 c56 -17 58 -19 53 -48 -6 -37 -22 -397 -30 -650 -6 -176 -19 -337 -31
-377 -4 -12 7 -20 46 -33 29 -10 50 -23 50 -31 0 -20 -13 -18 -44 7 l-27 22 3
-34 c3 -30 7 -34 36 -37 30 -3 33 -6 28 -25 -4 -12 -9 -51 -13 -87 l-6 -66
-68 4 -69 4 14 -48 c10 -35 16 -145 20 -384 4 -280 3 -351 -11 -432 -15 -90
-15 -117 1 -345 16 -252 21 -573 9 -695 l-6 -68 -182 0 -182 0 -12 58 c-10 48
-28 475 -27 635 0 43 -3 51 -44 90 l-45 43 -200 -7 c-210 -8 -247 -14 -344
-64 -41 -20 -51 -30 -46 -43 16 -41 16 -69 1 -85 -9 -8 -16 -20 -16 -26 0 -18
-204 -432 -242 -492 l-36 -56 -114 -22 c-181 -33 -318 -54 -323 -49 -2 2 78
168 179 369 157 313 191 388 239 536 59 179 64 198 47 188 -5 -3 -10 -4 -10
-2 0 12 145 306 231 467 54 102 102 203 107 225 5 22 23 62 40 89 18 27 52
103 78 168 25 65 68 156 95 203 50 87 110 213 219 460 34 77 95 200 137 273
41 73 102 189 135 258 l60 124 121 0 c89 0 138 -4 179 -17z m-1666 -59 l110
-6 -48 -206 c-27 -113 -50 -208 -53 -210 -6 -6 -377 -21 -810 -32 -209 -5
-427 -15 -485 -22 -147 -16 -149 -19 -220 -332 -26 -117 -61 -257 -78 -312
-25 -85 -29 -112 -27 -188 3 -96 18 -129 66 -153 36 -19 109 -16 124 4 11 15
25 15 166 3 85 -7 183 -11 217 -8 l64 4 -7 -55 c-7 -58 -71 -291 -83 -303 -4
-3 -106 -14 -227 -22 -395 -29 -452 -41 -493 -108 -31 -51 -62 -168 -77 -291
-7 -62 -34 -197 -60 -300 -26 -104 -44 -198 -41 -210 9 -36 74 -105 109 -115
18 -6 288 -13 637 -17 332 -3 607 -8 609 -11 8 -7 -28 -181 -55 -264 l-24 -78
-78 -6 c-118 -9 -756 -19 -1253 -20 l-447 -1 13 40 c44 141 72 213 89 237 30
43 33 130 6 219 l-21 74 44 85 c28 52 52 116 63 165 11 52 24 85 36 93 49 35
81 163 72 287 -6 68 -10 85 -21 81 -10 -4 -13 -1 -9 12 3 9 14 54 25 98 12 45
38 120 60 167 56 121 88 223 101 319 6 46 21 116 32 156 13 49 18 91 15 130
-3 44 6 97 39 232 23 96 52 229 64 295 12 66 26 129 31 140 5 11 25 94 45 185
19 90 37 167 40 169 11 12 450 65 654 80 126 9 879 6 1086 -5z m-2401 -2883
c3 -5 1 -12 -5 -16 -5 -3 -10 1 -10 9 0 18 6 21 15 7z"/>
<path d="M12778 7874 c-27 -14 -78 -98 -78 -127 0 -8 -9 -22 -20 -32 -10 -9
-29 -47 -41 -83 -12 -37 -49 -123 -81 -192 -84 -177 -133 -296 -169 -412 -17
-55 -45 -128 -64 -162 -18 -33 -36 -72 -40 -86 -4 -13 -32 -56 -61 -95 -29
-38 -51 -71 -50 -73 2 -1 32 11 68 27 53 24 67 26 81 16 12 -8 88 -15 236 -20
l219 -7 45 26 44 26 6 173 c4 94 13 219 21 277 24 172 38 395 34 558 l-3 154
-28 24 c-32 28 -78 31 -119 8z m-80 -812 l-32 -232 -64 0 c-57 0 -64 2 -59 18
11 37 181 451 184 448 2 -2 -11 -107 -29 -234z"/>
<path d="M16415 8937 c-20 -8 -132 -11 -329 -12 l-298 0 -42 -47 c-22 -26 -84
-115 -136 -198 -52 -83 -132 -208 -177 -278 l-81 -126 -5 55 c-3 30 -11 101
-17 159 -7 58 -13 121 -15 140 -1 19 -28 90 -60 157 l-57 122 -382 3 c-326 3
-386 1 -416 -12 -54 -23 -101 -127 -140 -309 -44 -207 -127 -526 -232 -891
-89 -313 -183 -657 -190 -695 -2 -15 3 -21 22 -23 34 -5 43 -16 35 -42 -5 -17
-10 -19 -21 -9 -8 6 -14 18 -14 25 0 8 -4 14 -8 14 -5 0 -29 -96 -55 -212
-163 -744 -258 -1153 -276 -1181 -40 -67 -65 -187 -66 -315 0 -70 1 -75 32
-102 18 -16 47 -33 65 -38 18 -4 185 -7 371 -6 l338 3 44 26 c41 23 45 30 45
63 0 39 69 311 138 542 71 236 114 400 152 575 63 290 94 415 104 415 5 0 5
-18 1 -42 -11 -59 -8 -97 9 -123 9 -14 13 -36 10 -56 -10 -67 53 -131 129
-131 91 0 145 53 257 252 41 72 76 125 78 118 1 -8 -29 -139 -67 -293 -38
-154 -85 -356 -105 -450 -60 -290 -73 -346 -105 -467 -44 -169 -54 -268 -41
-391 7 -56 13 -104 15 -106 2 -2 22 10 43 27 26 21 46 29 59 26 12 -3 37 2 56
11 34 16 148 17 589 4 45 -1 91 25 123 71 31 45 70 159 80 231 27 213 71 421
185 884 72 292 153 604 180 695 70 233 127 462 216 860 97 438 174 752 223
905 21 66 41 132 45 146 l6 26 -98 6 c-130 9 -181 8 -217 -6z m-17 -319 c-13
-207 -28 -298 -78 -486 -28 -102 -50 -194 -50 -204 0 -10 -9 -44 -21 -76 -41
-111 -80 -255 -90 -330 -5 -43 -19 -98 -29 -124 -11 -26 -20 -66 -20 -89 0
-30 -19 -85 -66 -191 l-65 -149 -129 -590 c-141 -643 -169 -758 -227 -924
l-38 -110 -60 -6 c-33 -4 -126 -7 -207 -8 -131 -1 -148 1 -148 15 0 20 47 278
95 524 19 96 55 283 80 415 26 132 66 323 90 425 24 102 48 219 55 260 20 131
52 253 86 335 19 44 34 81 34 83 0 1 -48 1 -107 0 l-108 -3 -112 -160 c-62
-88 -154 -231 -204 -319 -74 -127 -94 -155 -100 -139 -4 11 -21 83 -38 159
-37 166 -77 307 -97 347 -9 16 -31 35 -50 43 -70 29 -127 -22 -158 -141 -26
-102 -203 -851 -240 -1015 -27 -121 -62 -228 -159 -489 -69 -183 -130 -338
-136 -344 -15 -15 -370 -22 -391 -8 -22 15 -2 123 85 456 89 337 118 461 150
640 13 72 37 184 54 250 16 66 51 217 76 335 61 281 105 450 154 590 24 70 44
150 51 205 13 105 14 109 73 330 49 181 94 318 147 453 l33 82 261 -2 260 -3
18 -75 c10 -41 22 -139 28 -217 18 -245 53 -394 104 -442 15 -15 43 -25 79
-30 31 -4 62 -13 70 -20 12 -10 20 -1 45 54 17 36 51 91 76 123 24 32 58 94
75 138 107 276 314 497 501 533 25 5 115 9 200 10 l155 1 -7 -112z"/>
</g>
</svg>
